<svg xmlns="http://www.w3.org/2000/svg" viewBox="0 0 24 24" width="24" height="24" fill="none" stroke="currentColor" stroke-width="2" stroke-linecap="round" stroke-linejoin="round">
  <!-- Steam -->
  <path d="M7.5 2C7.5 2 8 3.5 8 4" stroke="#FFFFFF" stroke-width="1" />
  <path d="M10.5 2C10.5 2 11 3.5 11 4" stroke="#FFFFFF" stroke-width="1" />
  <path d="M13.5 2C13.5 2 14 3.5 14 4" stroke="#FFFFFF" stroke-width="1" />
  
  <!-- Cup body -->
  <path d="M5 10V8C5 7.44772 5.44772 7 6 7H18C18.5523 7 19 7.44772 19 8V10" fill="#FFFFFF" stroke="#FFFFFF" />
  <path d="M5 10V16C5 17.1046 5.89543 18 7 18H17C18.1046 18 19 17.1046 19 16V10" fill="#FFFFFF" stroke="#FFFFFF" />
  
  <!-- Cup handle -->
  <path d="M19 10C20.6569 10 22 11.3431 22 13C22 14.6569 20.6569 16 19 16" fill="none" stroke="#FFFFFF" />
  
  <!-- Saucer -->
  <path d="M3 18H21" stroke="#FFFFFF" stroke-width="1.5" />
  <path d="M7 21H17" stroke="#FFFFFF" stroke-width="1.5" />
  <path d="M3 18C3 19.6569 4.79086 21 7 21" stroke="#FFFFFF" stroke-width="1.5" />
  <path d="M21 18C21 19.6569 19.2091 21 17 21" stroke="#FFFFFF" stroke-width="1.5" />
  
  <!-- Coffee surface with gradient -->
  <path d="M5 10H19" stroke="#FFFFFF" />
  <path d="M7 10.5H17" stroke="#FFFFFF" opacity="0.5" />
  <path d="M8 11H16" stroke="#FFFFFF" opacity="0.3" />
</svg>