<svg width="400" height="300" xmlns="http://www.w3.org/2000/svg">
  <!-- Background rectangle -->
  <rect width="400" height="300" fill="#f0f0f0"/>
  
  <!-- GitHub logo silhouette -->
  <path d="M200,120 C160,120 128,152 128,192 C128,224 148,250 176,258 C180,259 182,256 182,254 C182,252 182,246 182,240 C162,244 158,230 158,230 C154,220 148,218 148,218 C140,212 148,212 148,212 C156,213 160,222 160,222 C168,238 182,231 182,228 C182,222 184,218 186,216 C170,214 154,206 154,178 C154,168 158,160 162,154 C161,152 158,144 163,134 C163,134 169,132 182,140 C188,138 194,137 200,137 C206,137 212,138 218,140 C230,132 236,134 236,134 C240,144 238,152 236,154 C240,160 244,168 244,178 C244,206 228,214 212,216 C214,218 216,222 216,230 C216,240 216,252 216,254 C216,256 218,259 222,258 C250,250 270,224 270,192 C270,152 238,120 200,120 Z" fill="#c0c0c0"/>
  
  <!-- Loading text -->
  <text x="200" y="280" font-family="Arial, sans-serif" font-size="14" text-anchor="middle" fill="#888888">Loading...</text>
</svg>