<svg width="32" height="32" viewBox="0 0 32 32" fill="none" xmlns="http://www.w3.org/2000/svg">
  <!-- GitHub Logo -->
  <path d="M16 2C8.3 2 2 8.3 2 16C2 22.1 6.2 27.2 11.8 29C12.6 29.1 12.9 28.7 12.9 28.3C12.9 28 12.9 26.9 12.9 25.8C8.7 26.6 7.8 24.5 7.8 24.5C7.1 23 6.1 22.6 6.1 22.6C4.8 21.8 6.2 21.8 6.2 21.8C7.6 21.9 8.4 23.1 8.4 23.1C9.7 25.1 11.9 24.5 13 24.1C13.1 23.2 13.5 22.6 13.9 22.3C10.6 22 7.1 20.8 7.1 15.4C7.1 13.9 7.7 12.7 8.4 11.8C8.3 11.4 7.8 10 8.5 8C8.5 8 9.8 7.6 12.9 9.5C14 9.2 15 9 16.1 9C17.2 9 18.2 9.2 19.3 9.5C22.4 7.6 23.7 8 23.7 8C24.4 10 23.9 11.4 23.8 11.8C24.5 12.7 25.1 13.9 25.1 15.4C25.1 20.8 21.6 22 18.3 22.3C18.8 22.7 19.2 23.5 19.2 24.7C19.2 26.5 19.2 27.9 19.2 28.3C19.2 28.7 19.5 29.1 20.3 29C25.9 27.2 30.1 22.1 30.1 16C30 8.3 23.7 2 16 2Z" fill="#000000"/>
</svg>